<svg xmlns="http://www.w3.org/2000/svg" xmlns:xlink="http://www.w3.org/1999/xlink" xmlns:lucid="lucid" width="1030" height="1141"><g transform="translate(0 -20)" lucid:page-tab-id="0_0"><path d="M0 0h1870.4v1323.2H0z" fill="#fff"/><path d="M620 1021h160v120H620z" stroke="#000" stroke-width="2" fill="#fff"/><use xlink:href="#a" transform="matrix(1,0,0,1,625,1026) translate(33.575 58.6)"/><path d="M140 1021h160v120H140z" stroke="#000" stroke-width="2" fill="#fff"/><use xlink:href="#b" transform="matrix(1,0,0,1,145,1026) translate(15.049999999999997 58.6)"/><path d="M400 615h160v120H400z" stroke="#000" stroke-width="2" fill="#fff"/><use xlink:href="#c" transform="matrix(1,0,0,1,405,620.0000000000002) translate(-1.5999999999999943 58.6)"/><path d="M140 615h160v120H140z" stroke="#000" stroke-width="2" fill="#fff"/><use xlink:href="#d" transform="matrix(1,0,0,1,145,620.0000000000002) translate(33.9 58.6)"/><path d="M200 40h200v120H200z" stroke="#000" stroke-width="2" fill="#fff"/><use xlink:href="#e" transform="matrix(1,0,0,1,205,45) translate(8.975000000000009 58.6)"/><path d="M220 240h160v120H220z" stroke="#000" stroke-width="2" fill="#fff"/><use xlink:href="#f" transform="matrix(1,0,0,1,225,245) translate(56.724999999999994 58.6)"/><path d="M20 422h160v120H20z" stroke="#000" stroke-width="2" fill="#fff"/><use xlink:href="#g" transform="matrix(1,0,0,1,25,427) translate(40.05 58.6)"/><path d="M221 1020h-2V857.5h2zm0-184.1h-2V736h2zM221 736h-2v-1h2zM221 1021h-2v-1h2z"/><use xlink:href="#h" transform="matrix(1,0,0,1,214.525,835.9111284384221) translate(0 14.4)"/><path d="M344.52 885.46l-123.78 135.22-1.48-1.36L344.52 882.5zm136.22-148.78L355.48 873.5v-2.96l123.78-135.22zM480.74 736.68l-1.48-1.36.3-.32h2.7z"/><path d="M220.74 1020.68l-.3.32h-2.7l1.52-1.68z"/><use xlink:href="#h" transform="matrix(1,0,0,1,344.525,867.2000000000002) translate(0 14.4)"/><path d="M700.8 1019.4l-1.6 1.2-103.73-133.9v-3.27zM584.52 869.3v3.27l-4.05-5.23v-.14h-.1L479.2 736.6l1.6-1.2z"/><path d="M480.8 735.4l-1.6 1.2-1.24-1.6h2.53zM702.04 1021h-2.53l-.3-.4 1.6-1.2z"/><use xlink:href="#h" transform="matrix(1,0,0,1,584.525,867.2000000000002) translate(0 14.4)"/><path d="M583.52 581.64l-103.2 33.3-.63-1.9 103.82-33.5zm116.8-37.7l-103.85 33.52v-2.1l103.22-33.3z"/><path d="M703.16 543.03l-2.85.92-.6-1.9.14-.05h3zM480.3 614.95l-.14.05h-3l-.32-1.03 2.85-.92z"/><use xlink:href="#i" transform="matrix(1,0,0,1,583.525,567.7000000000002) translate(0 14.4)"/><path d="M620 422h160v120H620z" stroke="#000" stroke-width="2" fill="#fff"/><use xlink:href="#j" transform="matrix(1,0,0,1,625,427) translate(38.025 58.6)"/><path d="M301 239h-2v-28.2h2zm0-49.8h-2V161h2zM301 161h-2v-1h2zM301 240h-2v-1h2z"/><use xlink:href="#k" transform="matrix(1,0,0,1,295,189.2) translate(0 14.4)"/><path d="M183.25 397.07l-82.96 24.9-.6-1.93 83.55-25.06zm117.04-35.1l-104.1 31.22v-2.1l103.5-31.06z"/><path d="M100.3 421.96l-.15.04h-2.98l-.33-1.1 2.87-.86zM303.16 361.1l-2.87.86-.6-1.92.15-.04h2.98z"/><use xlink:href="#i" transform="matrix(1,0,0,1,183.24631614002485,383.28360515799255) translate(0 14.4)"/><path d="M220.95 614.3l-1.9-.6 36.5-115.4h2.08zm80-253l-36.5 115.4h-2.08l36.68-116z"/><path d="M300.95 361.3l-1.9-.6.22-.7h2.1zM220.95 614.3l-.22.7h-2.1l.42-1.3z"/><use xlink:href="#l" transform="matrix(1,0,0,1,255,476.7000000000001) translate(0 14.4)"/><path d="M700.15 420l-.3 2L505 392.75v-2.02zM495 389.25v2.02L299.85 362l.3-2zM300.15 360l-.3 2-2.97-.46.24-1.54h2.95zM703.12 420.46l-.24 1.54h-2.95l.22-2z"/><use xlink:href="#m" transform="matrix(1,0,0,1,495,380.2) translate(0 14.4)"/><path d="M620 615h160v120H620z" stroke="#000" stroke-width="2" fill="#fff"/><use xlink:href="#n" transform="matrix(1,0,0,1,625,620.0000000000002) translate(14.875 58.6)"/><path d="M850 615h160v120H850z" stroke="#000" stroke-width="2" fill="#fff"/><use xlink:href="#o" transform="matrix(1,0,0,1,855,620.0000000000002) translate(8.549999999999997 58.6)"/><path d="M701 614h-2v-24.7h2zm0-46.3h-2V543h2zM701 615h-2v-1h2z"/><use xlink:href="#i" transform="matrix(1,0,0,1,693.525,567.7000000000002) translate(0 14.4)"/><path d="M930.3 613.04l-.6 1.92-108.23-33.4v-2.1zm-121.77-37.6v2.1L699.7 543.97l.6-1.92zM933.16 613.93l-.33 1.07h-2.98l-.14-.04.6-1.92z"/><use xlink:href="#i" transform="matrix(1,0,0,1,808.525,567.7000000000002) translate(0 14.4)"/><path d="M809.52 886.35L700.8 1020.63l-1.56-1.26 110.3-136.2zM930.8 736.63l-110.3 136.2v-3.18L929.2 735.37z"/><path d="M930.78 736.63l-1.56-1.26.3-.37h2.58zM700.78 1020.63l-.3.37h-2.58l1.32-1.63z"/><use xlink:href="#h" transform="matrix(1,0,0,1,809.525,867.2000000000002) translate(0 14.4)"/><path d="M701 1020h-2V888.8h2zm0-152.8h-2V736h2zM701 736h-2v-1h2zM701 1021h-2v-1h2z"/><use xlink:href="#h" transform="matrix(1,0,0,1,694.525,867.2000000000002) translate(0 14.4)"/><path d="M454.52 882.4l-234 138.46-1.03-1.72L454.5 880.08zm246-145.54L465.47 875.92v-2.32l234-138.46z"/><path d="M703.1 735.33l-2.6 1.53-1-1.72.23-.14h3.16zM220.5 1020.86l-.23.14h-3.16l-.2-.33 2.6-1.53z"/><use xlink:href="#h" transform="matrix(1,0,0,1,454.525,867.2000000000002) translate(0 14.4)"/><path d="M569.52 881.27l-349.15 139.66-.74-1.86 349.9-139.96zm15-6l-4.04 1.62v-2.17l4.04-1.62zm345.85-138.34L595.47 870.9v-2.17l334.16-133.66z"/><path d="M933.16 735.8l-2.8 1.13-.73-1.86.18-.07h3.03zM220.37 1020.93l-.18.07h-3.03l-.33-.8 2.8-1.13z"/><use xlink:href="#h" transform="matrix(1,0,0,1,569.525,867.2000000000002) translate(0 14.4)"/><defs><path d="M63-220v92h138v28H63V0H30v-248h175v28H63" id="p"/><path d="M24-231v-30h32v30H24zM24 0v-190h32V0H24" id="q"/><path d="M24 0v-261h32V0H24" id="r"/><path d="M100-194c63 0 86 42 84 106H49c0 40 14 67 53 68 26 1 43-12 49-29l28 8c-11 28-37 45-77 45C44 4 14-33 15-96c1-61 26-98 85-98zm52 81c6-60-76-77-97-28-3 7-6 17-6 28h103" id="s"/><path d="M140-251c81 0 123 46 123 126C263-46 219 4 140 4 59 4 17-45 17-125s42-126 123-126zm0 227c63 0 89-41 89-101s-29-99-89-99c-61 0-89 39-89 99S79-25 140-24" id="t"/><path d="M84 4C-5 8 30-112 23-190h32v120c0 31 7 50 39 49 72-2 45-101 50-169h31l1 190h-30c-1-10 1-25-2-33-11 22-28 36-60 37" id="u"/><path d="M59-47c-2 24 18 29 38 22v24C64 9 27 4 27-40v-127H5v-23h24l9-43h21v43h35v23H59v120" id="v"/><path d="M115-194c55 1 70 41 70 98S169 2 115 4C84 4 66-9 55-30l1 105H24l-1-265h31l2 30c10-21 28-34 59-34zm-8 174c40 0 45-34 45-75s-6-73-45-74c-42 0-51 32-51 76 0 43 10 73 51 73" id="w"/><g id="a"><use transform="matrix(0.05,0,0,0.05,0,0)" xlink:href="#p"/><use transform="matrix(0.05,0,0,0.05,10.950000000000001,0)" xlink:href="#q"/><use transform="matrix(0.05,0,0,0.05,14.9,0)" xlink:href="#r"/><use transform="matrix(0.05,0,0,0.05,18.85,0)" xlink:href="#s"/><use transform="matrix(0.05,0,0,0.05,28.85,0)" xlink:href="#t"/><use transform="matrix(0.05,0,0,0.05,42.85,0)" xlink:href="#u"/><use transform="matrix(0.05,0,0,0.05,52.85,0)" xlink:href="#v"/><use transform="matrix(0.05,0,0,0.05,57.85,0)" xlink:href="#w"/><use transform="matrix(0.05,0,0,0.05,67.85,0)" xlink:href="#u"/><use transform="matrix(0.05,0,0,0.05,77.85,0)" xlink:href="#v"/></g><path d="M212-179c-10-28-35-45-73-45-59 0-87 40-87 99 0 60 29 101 89 101 43 0 62-24 78-52l27 14C228-24 195 4 139 4 59 4 22-46 18-125c-6-104 99-153 187-111 19 9 31 26 39 46" id="x"/><path d="M100-194c62-1 85 37 85 99 1 63-27 99-86 99S16-35 15-95c0-66 28-99 85-99zM99-20c44 1 53-31 53-75 0-43-8-75-51-75s-53 32-53 75 10 74 51 75" id="y"/><path d="M117-194c89-4 53 116 60 194h-32v-121c0-31-8-49-39-48C34-167 62-67 57 0H25l-1-190h30c1 10-1 24 2 32 11-22 29-35 61-36" id="z"/><path d="M135-143c-3-34-86-38-87 0 15 53 115 12 119 90S17 21 10-45l28-5c4 36 97 45 98 0-10-56-113-15-118-90-4-57 82-63 122-42 12 7 21 19 24 35" id="A"/><g id="b"><use transform="matrix(0.05,0,0,0.05,0,0)" xlink:href="#x"/><use transform="matrix(0.05,0,0,0.05,12.950000000000001,0)" xlink:href="#y"/><use transform="matrix(0.05,0,0,0.05,22.950000000000003,0)" xlink:href="#z"/><use transform="matrix(0.05,0,0,0.05,32.95,0)" xlink:href="#A"/><use transform="matrix(0.05,0,0,0.05,41.95,0)" xlink:href="#y"/><use transform="matrix(0.05,0,0,0.05,51.95,0)" xlink:href="#r"/><use transform="matrix(0.05,0,0,0.05,55.900000000000006,0)" xlink:href="#s"/><use transform="matrix(0.05,0,0,0.05,65.9,0)" xlink:href="#t"/><use transform="matrix(0.05,0,0,0.05,79.9,0)" xlink:href="#u"/><use transform="matrix(0.05,0,0,0.05,89.9,0)" xlink:href="#v"/><use transform="matrix(0.05,0,0,0.05,94.9,0)" xlink:href="#w"/><use transform="matrix(0.05,0,0,0.05,104.9,0)" xlink:href="#u"/><use transform="matrix(0.05,0,0,0.05,114.9,0)" xlink:href="#v"/></g><path d="M127-220V0H93v-220H8v-28h204v28h-85" id="B"/><path d="M114-163C36-179 61-72 57 0H25l-1-190h30c1 12-1 29 2 39 6-27 23-49 58-41v29" id="C"/><path d="M141-36C126-15 110 5 73 4 37 3 15-17 15-53c-1-64 63-63 125-63 3-35-9-54-41-54-24 1-41 7-42 31l-33-3c5-37 33-52 76-52 45 0 72 20 72 64v82c-1 20 7 32 28 27v20c-31 9-61-2-59-35zM48-53c0 20 12 33 32 33 41-3 63-29 60-74-43 2-92-5-92 41" id="D"/><path d="M96-169c-40 0-48 33-48 73s9 75 48 75c24 0 41-14 43-38l32 2c-6 37-31 61-74 61-59 0-76-41-82-99-10-93 101-131 147-64 4 7 5 14 7 22l-32 3c-4-21-16-35-41-35" id="E"/><path d="M143 0L79-87 56-68V0H24v-261h32v163l83-92h37l-77 82L181 0h-38" id="F"/><path d="M30 0v-248h187v28H63v79h144v27H63v87h162V0H30" id="G"/><path d="M85-194c31 0 48 13 60 33l-1-100h32l1 261h-30c-2-10 0-23-3-31C134-8 116 4 85 4 32 4 16-35 15-94c0-66 23-100 70-100zm9 24c-40 0-46 34-46 75 0 40 6 74 45 74 42 0 51-32 51-76 0-42-9-74-50-73" id="H"/><path d="M108 0H70L1-190h34L89-25l56-165h34" id="I"/><g id="c"><use transform="matrix(0.05,0,0,0.05,0,0)" xlink:href="#B"/><use transform="matrix(0.05,0,0,0.05,10.3,0)" xlink:href="#C"/><use transform="matrix(0.05,0,0,0.05,16.25,0)" xlink:href="#D"/><use transform="matrix(0.05,0,0,0.05,26.25,0)" xlink:href="#E"/><use transform="matrix(0.05,0,0,0.05,35.25,0)" xlink:href="#F"/><use transform="matrix(0.05,0,0,0.05,44.25,0)" xlink:href="#G"/><use transform="matrix(0.05,0,0,0.05,56.25,0)" xlink:href="#z"/><use transform="matrix(0.05,0,0,0.05,66.25,0)" xlink:href="#v"/><use transform="matrix(0.05,0,0,0.05,71.25,0)" xlink:href="#s"/><use transform="matrix(0.05,0,0,0.05,81.25,0)" xlink:href="#C"/><use transform="matrix(0.05,0,0,0.05,87.2,0)" xlink:href="#s"/><use transform="matrix(0.05,0,0,0.05,97.2,0)" xlink:href="#H"/><use transform="matrix(0.05,0,0,0.05,107.2,0)" xlink:href="#G"/><use transform="matrix(0.05,0,0,0.05,119.2,0)" xlink:href="#I"/><use transform="matrix(0.05,0,0,0.05,128.2,0)" xlink:href="#s"/><use transform="matrix(0.05,0,0,0.05,138.2,0)" xlink:href="#z"/><use transform="matrix(0.05,0,0,0.05,148.2,0)" xlink:href="#v"/></g><path d="M30-248c118-7 216 8 213 122C240-48 200 0 122 0H30v-248zM63-27c89 8 146-16 146-99s-60-101-146-95v194" id="J"/><g id="d"><use transform="matrix(0.05,0,0,0.05,0,0)" xlink:href="#B"/><use transform="matrix(0.05,0,0,0.05,10.3,0)" xlink:href="#C"/><use transform="matrix(0.05,0,0,0.05,16.25,0)" xlink:href="#D"/><use transform="matrix(0.05,0,0,0.05,26.25,0)" xlink:href="#E"/><use transform="matrix(0.05,0,0,0.05,35.25,0)" xlink:href="#F"/><use transform="matrix(0.05,0,0,0.05,44.25,0)" xlink:href="#J"/><use transform="matrix(0.05,0,0,0.05,57.2,0)" xlink:href="#D"/><use transform="matrix(0.05,0,0,0.05,67.2,0)" xlink:href="#v"/><use transform="matrix(0.05,0,0,0.05,72.2,0)" xlink:href="#D"/></g><path d="M233-177c-1 41-23 64-60 70L243 0h-38l-65-103H63V0H30v-248c88 3 205-21 203 71zM63-129c60-2 137 13 137-47 0-61-80-42-137-45v92" id="K"/><g id="e"><use transform="matrix(0.05,0,0,0.05,0,0)" xlink:href="#B"/><use transform="matrix(0.05,0,0,0.05,10.3,0)" xlink:href="#C"/><use transform="matrix(0.05,0,0,0.05,16.25,0)" xlink:href="#D"/><use transform="matrix(0.05,0,0,0.05,26.25,0)" xlink:href="#z"/><use transform="matrix(0.05,0,0,0.05,36.25,0)" xlink:href="#A"/><use transform="matrix(0.05,0,0,0.05,45.25,0)" xlink:href="#w"/><use transform="matrix(0.05,0,0,0.05,55.25,0)" xlink:href="#y"/><use transform="matrix(0.05,0,0,0.05,65.25,0)" xlink:href="#z"/><use transform="matrix(0.05,0,0,0.05,75.25,0)" xlink:href="#H"/><use transform="matrix(0.05,0,0,0.05,85.25,0)" xlink:href="#s"/><use transform="matrix(0.05,0,0,0.05,95.25,0)" xlink:href="#C"/><use transform="matrix(0.05,0,0,0.05,101.2,0)" xlink:href="#K"/><use transform="matrix(0.05,0,0,0.05,114.15,0)" xlink:href="#s"/><use transform="matrix(0.05,0,0,0.05,124.15,0)" xlink:href="#E"/><use transform="matrix(0.05,0,0,0.05,133.15,0)" xlink:href="#s"/><use transform="matrix(0.05,0,0,0.05,143.15,0)" xlink:href="#q"/><use transform="matrix(0.05,0,0,0.05,147.1,0)" xlink:href="#I"/><use transform="matrix(0.05,0,0,0.05,156.1,0)" xlink:href="#s"/><use transform="matrix(0.05,0,0,0.05,166.1,0)" xlink:href="#C"/></g><path d="M205 0l-28-72H64L36 0H1l101-248h38L239 0h-34zm-38-99l-47-123c-12 45-31 82-46 123h93" id="L"/><path d="M240 0l2-218c-23 76-54 145-80 218h-23L58-218 59 0H30v-248h44l77 211c21-75 51-140 76-211h43V0h-30" id="M"/><g id="f"><use transform="matrix(0.05,0,0,0.05,0,0)" xlink:href="#L"/><use transform="matrix(0.05,0,0,0.05,10.65,0)" xlink:href="#B"/><use transform="matrix(0.05,0,0,0.05,21.6,0)" xlink:href="#M"/></g><g id="g"><use transform="matrix(0.05,0,0,0.05,0,0)" xlink:href="#L"/><use transform="matrix(0.05,0,0,0.05,12,0)" xlink:href="#q"/><use transform="matrix(0.05,0,0,0.05,15.949999999999998,0)" xlink:href="#C"/><use transform="matrix(0.05,0,0,0.05,21.9,0)" xlink:href="#A"/><use transform="matrix(0.05,0,0,0.05,30.899999999999995,0)" xlink:href="#w"/><use transform="matrix(0.05,0,0,0.05,40.9,0)" xlink:href="#D"/><use transform="matrix(0.05,0,0,0.05,50.9,0)" xlink:href="#E"/><use transform="matrix(0.05,0,0,0.05,59.900000000000006,0)" xlink:href="#s"/></g><use transform="matrix(0.05,0,0,0.05,0,0)" xlink:href="#p" id="h"/><path d="M232-93c-1 65-40 97-104 97C67 4 28-28 28-90v-158h33c8 89-33 224 67 224 102 0 64-133 71-224h33v155" id="N"/><use transform="matrix(0.05,0,0,0.05,0,0)" xlink:href="#N" id="i"/><path d="M30 0v-248h33v221h125V0H30" id="O"/><g id="j"><use transform="matrix(0.05,0,0,0.05,0,0)" xlink:href="#G"/><use transform="matrix(0.05,0,0,0.05,12,0)" xlink:href="#I"/><use transform="matrix(0.05,0,0,0.05,21,0)" xlink:href="#s"/><use transform="matrix(0.05,0,0,0.05,31,0)" xlink:href="#z"/><use transform="matrix(0.05,0,0,0.05,41,0)" xlink:href="#v"/><use transform="matrix(0.05,0,0,0.05,46,0)" xlink:href="#O"/><use transform="matrix(0.05,0,0,0.05,56,0)" xlink:href="#q"/><use transform="matrix(0.05,0,0,0.05,59.95,0)" xlink:href="#A"/><use transform="matrix(0.05,0,0,0.05,68.95,0)" xlink:href="#v"/></g><path d="M126-127c33 6 58 20 58 59 0 88-139 92-164 29-3-8-5-16-6-25l32-3c6 27 21 44 54 44 32 0 52-15 52-46 0-38-36-46-79-43v-28c39 1 72-4 72-42 0-27-17-43-46-43-28 0-47 15-49 41l-32-3c6-42 35-63 81-64 48-1 79 21 79 65 0 36-21 52-52 59" id="P"/><use transform="matrix(0.05,0,0,0.05,0,0)" xlink:href="#P" id="k"/><path d="M27 0v-27h64v-190l-56 39v-29l58-41h29v221h61V0H27" id="Q"/><use transform="matrix(0.05,0,0,0.05,0,0)" xlink:href="#Q" id="l"/><path d="M101-251c82-7 93 87 43 132L82-64C71-53 59-42 53-27h129V0H18c2-99 128-94 128-182 0-28-16-43-45-43s-46 15-49 41l-32-3c6-41 34-60 81-64" id="R"/><use transform="matrix(0.05,0,0,0.05,0,0)" xlink:href="#R" id="m"/><path d="M101-234c-31-9-42 10-38 44h38v23H63V0H32v-167H5v-23h27c-7-52 17-82 69-68v24" id="S"/><g id="n"><use transform="matrix(0.05,0,0,0.05,0,0)" xlink:href="#B"/><use transform="matrix(0.05,0,0,0.05,10.3,0)" xlink:href="#C"/><use transform="matrix(0.05,0,0,0.05,16.25,0)" xlink:href="#D"/><use transform="matrix(0.05,0,0,0.05,26.25,0)" xlink:href="#E"/><use transform="matrix(0.05,0,0,0.05,35.25,0)" xlink:href="#F"/><use transform="matrix(0.05,0,0,0.05,44.25,0)" xlink:href="#O"/><use transform="matrix(0.05,0,0,0.05,54.25,0)" xlink:href="#s"/><use transform="matrix(0.05,0,0,0.05,64.25,0)" xlink:href="#S"/><use transform="matrix(0.05,0,0,0.05,69.25,0)" xlink:href="#v"/><use transform="matrix(0.05,0,0,0.05,74.25,0)" xlink:href="#G"/><use transform="matrix(0.05,0,0,0.05,86.25,0)" xlink:href="#I"/><use transform="matrix(0.05,0,0,0.05,95.25,0)" xlink:href="#s"/><use transform="matrix(0.05,0,0,0.05,105.25,0)" xlink:href="#z"/><use transform="matrix(0.05,0,0,0.05,115.25,0)" xlink:href="#v"/></g><path d="M185-189c-5-48-123-54-124 2 14 75 158 14 163 119 3 78-121 87-175 55-17-10-28-26-33-46l33-7c5 56 141 63 141-1 0-78-155-14-162-118-5-82 145-84 179-34 5 7 8 16 11 25" id="T"/><g id="o"><use transform="matrix(0.05,0,0,0.05,0,0)" xlink:href="#T"/><use transform="matrix(0.05,0,0,0.05,12,0)" xlink:href="#s"/><use transform="matrix(0.05,0,0,0.05,22,0)" xlink:href="#w"/><use transform="matrix(0.05,0,0,0.05,32,0)" xlink:href="#s"/><use transform="matrix(0.05,0,0,0.05,42,0)" xlink:href="#C"/><use transform="matrix(0.05,0,0,0.05,47.95,0)" xlink:href="#D"/><use transform="matrix(0.05,0,0,0.05,57.95,0)" xlink:href="#v"/><use transform="matrix(0.05,0,0,0.05,62.95,0)" xlink:href="#q"/><use transform="matrix(0.05,0,0,0.05,66.9,0)" xlink:href="#y"/><use transform="matrix(0.05,0,0,0.05,76.9,0)" xlink:href="#z"/><use transform="matrix(0.05,0,0,0.05,86.9,0)" xlink:href="#G"/><use transform="matrix(0.05,0,0,0.05,98.9,0)" xlink:href="#I"/><use transform="matrix(0.05,0,0,0.05,107.9,0)" xlink:href="#s"/><use transform="matrix(0.05,0,0,0.05,117.9,0)" xlink:href="#z"/><use transform="matrix(0.05,0,0,0.05,127.9,0)" xlink:href="#v"/></g></defs></g></svg>